Cover 
http://img829.imageshack.us/img829/9757/coverpy.png

Release Title Harry Potter And The Order Of The Phoenix 2007 BRRip 1080p 6Ch Dual Audio Eng-Hindi[MEGUIL & HD-KING]

Storyline:
With their warning about Lord Voldemort's return scoffed at, Harry and Dumbledore are targeted by the Wizard authorities as an authoritarian bureaucrat slowly seizes power at Hogwarts. 

Cast
Daniel Radcliffe	... Harry Potter
Harry Melling	... Dudley Dursley
Jason Boyd	... Piers
Richard Macklin	... Malcolm
Kathryn Hunter	... Mrs. Arabella Figg
Miles Jupp	... TV Weatherman
Fiona Shaw	... Aunt Petunia Dursley
Richard Griffiths	... Uncle Vernon Dursley
Jessica Hynes	... Mafalda Hopkirk (voice) (as Jessica Stevenson)
Adrian Rawlins	... James Potter
Geraldine Somerville	... Lily Potter
Robert Pattinson	... Cedric Diggory

Plot:
Genre: Adventure | Family | Fantasy | Mystery
Language: English
Runtime: 2h 12min
Total Size: 3.47 GB
Source: Harry Potter Bluray Disk ;)
Encoder: MEGUIL & HD-KING

Video Specs
Container: mkv
Format Profile: High@L4.0
Min Bitrate: 3000 Kbps
Max Bitrate: 25 Mbps
Encoding: 2 Pass
Resolution: 1920 x 800 
Display Aspect Ratio: 2.40:1
Quality Factor (QF): 0.081
Frame Rate: 23.976 Fps
Stream size: 2.89 GiB (80%)

Audio Specs English
Subtitles: None
Audio Codec: AC3/CM
Bitrate: 320 Kbps
Sample Rate: 48.0 KHz
Channel Count: 6
Channel Positions: Front: L C R, Side: L R, LFE
Stream size: 281 MiB (10%)

Audio Specs Hindi
Subtitles: None
Audio Codec: AC3/CM
Bitrate: 320 Kbps
Sample Rate: 48.0 KHz
Channel Count: 6
Channel Positions: Front: L C R, Side: L R, LFE
Stream size: 281 MiB (10%)

IMDB 
http://www.imdb.com/title/tt0373889/

Screens 
 
http://img337.imageshack.us/img337/4737/screen1lh.jpg
 
http://img97.imageshack.us/img97/6498/screen2if.jpg
 
http://img152.imageshack.us/img152/1747/screen3md.jpg
